# xmcd
#
# Track frame offsets: 
#        150
#        21568
#        35127
#        49977
#        64983
#        80950
#        92491
#        107087
#        118173
#        129977
#        143321
#        158385
#        187427
#        202866
#        217083
#        229206
#        242959
#        257473
#        271434
#        287030
#        299939
#
# Disc length: 4149 seconds
#
# Revision: 1
# Processed by: cddbd v1.5.2PL0 Copyright (c) Steve Scherf et al.
# Submitted via: ExactAudioCopy v0.99pb5
#
DISCID=50103315
DTITLE=Oberkrainer Sextett - 40 Jahre
DYEAR=2005
DGENRE=Folk
TTITLE0=40 Jahre Polka Potpourri
TTITLE1=Musik ist meine Welt
TTITLE2=Ein Lied zum Glücklichsein
TTITLE3=Sein Lied
TTITLE4=Helles Bier-Polka
TTITLE5=Schenk' deiner Welt ein Lächeln
TTITLE6=Der rechte Ton - Bariton
TTITLE7=Einmal zieht jeder den Joker
TTITLE8=Für unsere Freunde
TTITLE9=Sieben Tage glücklich sein
TTITLE10=Heut' will ich überdrüber sein - Zivio
TTITLE11=Walzer Potpurri
TTITLE12=Something stupid
TTITLE13=Mein Lieblingswalzer
TTITLE14=Mein Schatz ist Musikant
TTITLE15=Mein Glück bist Du
TTITLE16=Ingrid Jodelkönigin
TTITLE17=Domowina
TTITLE18=Mami, du bleibst zuhaus
TTITLE19=Tausend Wünsche
TTITLE20=Verflixte Klarinette
EXTD=YEAR: 2005
EXTT0=
EXTT1=
EXTT2=
EXTT3=
EXTT4=
EXTT5=
EXTT6=
EXTT7=
EXTT8=
EXTT9=
EXTT10=
EXTT11=
EXTT12=
EXTT13=
EXTT14=
EXTT15=
EXTT16=
EXTT17=
EXTT18=
EXTT19=
EXTT20=
PLAYORDER=
